<?xml version="1.0" encoding="iso-8859-1"?>
<!-- Uploaded to: SVG Repo, www.svgrepo.com, Generator: SVG Repo Mixer Tools -->
<svg fill="#000000" height="800px" width="800px" version="1.1" id="Layer_1" xmlns="http://www.w3.org/2000/svg" xmlns:xlink="http://www.w3.org/1999/xlink" 
	 viewBox="0 0 512 512" xml:space="preserve">
<g>
	<g>
		<path d="M311.652,111.304c-19.332,0-37.965,2.888-55.652,7.998c-17.687-5.11-36.32-7.998-55.652-7.998
			C89.699,111.304,0,201.002,0,311.652C0,422.301,89.699,512,200.348,512c19.332,0,37.965-2.888,55.652-7.998
			c17.687,5.11,36.32,7.998,55.652,7.998C422.301,512,512,422.301,512,311.652C512,201.002,422.301,111.304,311.652,111.304z
			 M78.982,244.579c3.239-8.642,12.886-13.01,21.495-9.771l89.043,33.391c8.631,3.239,13.006,12.859,9.766,21.49
			c-2.511,6.706-8.875,10.837-15.63,10.837c-1.951,0-3.929-0.337-5.865-1.065l-89.043-33.391
			C80.118,262.83,75.743,253.21,78.982,244.579z M367.978,395.804l-33.391,33.391c-3.261,3.261-7.533,4.892-11.804,4.892
			s-8.544-1.631-11.804-4.892l-21.587-21.586l-21.587,21.587c-6.521,6.521-17.087,6.521-23.609,0l-21.586-21.587l-21.587,21.587
			c-6.521,6.521-17.087,6.521-23.609,0l-33.391-33.391c-6.521-6.521-6.521-17.087,0-23.609c6.521-6.521,17.087-6.521,23.609,0
			l21.587,21.586l21.587-21.587c6.521-6.521,17.087-6.521,23.609,0L256,393.783l21.587-21.587c6.521-6.521,17.087-6.521,23.609,0
			l21.586,21.587l21.587-21.587c6.521-6.521,17.087-6.521,23.609,0C374.5,378.717,374.5,389.283,367.978,395.804z M400.998,266.069
			l-89.043,33.391c-1.935,0.728-3.913,1.065-5.864,1.065c-6.755,0-13.119-4.13-15.63-10.837c-3.239-8.631,1.135-18.249,9.766-21.49
			l89.044-33.391c8.608-3.239,18.255,1.131,21.494,9.771C414.003,253.21,409.629,262.83,400.998,266.069z"/>
	</g>
</g>
<g>
	<g>
		<path d="M361.739,0c-55.482,0-99.898,33.84-118.515,81.997c4.269,0.808,8.53,1.705,12.776,2.753
			c8.343-2.058,16.744-3.591,25.159-4.722c16.145-27.98,45.042-46.637,80.58-46.637c9.22,0,16.696-7.475,16.696-16.696
			S370.96,0,361.739,0z"/>
	</g>
</g>
</svg>